<?xml version="1.0" encoding="utf-8"?>
<!-- Generator: Adobe Illustrator 19.2.1, SVG Export Plug-In . SVG Version: 6.00 Build 0)  -->
<!DOCTYPE svg PUBLIC "-//W3C//DTD SVG 1.1//EN" "http://www.w3.org/Graphics/SVG/1.1/DTD/svg11.dtd">
<svg version="1.1" id="Layer_1" xmlns="http://www.w3.org/2000/svg" xmlns:xlink="http://www.w3.org/1999/xlink" x="0px" y="0px"
	 viewBox="0 0 424 196" style="enable-background:new 0 0 424 196;" xml:space="preserve">
<style type="text/css">
	.st0{fill:#495057;}
</style>
<g id="Artboard_1">
	<path id="logos" class="st0" d="M71.8,195.5c-40,0-72.5-32.5-72.5-72.5V73c0-40,32.5-72.5,72.5-72.5S144.2,33,144.2,73v50
		C144.2,163,111.8,195.5,71.8,195.5z M71.8,45.5c-15.2,0-27.5,12.3-27.5,27.5v50c0,15.2,12.3,27.5,27.5,27.5s27.5-12.3,27.5-27.5V73
		C99.2,57.8,86.9,45.5,71.8,45.5z M347.2,76h54c12.4,0,22.5,10.1,22.5,22.5s-10,22.5-22.5,22.5h-54c-12.4,0-22.5-10.1-22.5-22.5
		S334.8,76,347.2,76z M236.8,195.5c-40,0-72.5-32.5-72.5-72.5V73c0-40,32.5-72.5,72.5-72.5c25.9,0,49.8,13.8,62.8,36.2
		c6.2,10.8,2.6,24.5-8.2,30.7c-10.8,6.2-24.5,2.6-30.7-8.2l0,0c-7.7-13.1-24.5-17.6-37.7-10c-8.5,4.9-13.8,14-13.8,23.8v50
		c0,15.2,12.3,27.5,27.5,27.5c9.8,0,18.9-5.2,23.8-13.8c6.2-10.8,20-14.4,30.7-8.2c10.8,6.2,14.4,20,8.2,30.7l0,0
		C286.5,181.7,262.6,195.4,236.8,195.5L236.8,195.5z"/>
</g>
</svg>
